<svg xmlns="http://www.w3.org/2000/svg" xmlns:xlink="http://www.w3.org/1999/xlink" width="1080" zoomAndPan="magnify" viewBox="0 0 810 809.999993" height="1080" preserveAspectRatio="xMidYMid meet" version="1.0"><defs><clipPath id="174c3eef25"><path d="M 5.015625 26.105469 L 801 26.105469 L 801 783 L 5.015625 783 Z M 5.015625 26.105469 " clip-rule="nonzero"/></clipPath></defs><g clip-path="url(#174c3eef25)"><path fill="#fdf8f5" d="M 635.765625 782.714844 C 633.832031 782.726562 631.9375 782.476562 630.074219 781.964844 C 628.210938 781.453125 626.449219 780.699219 624.796875 779.699219 L 402.90625 645.726562 L 181.011719 779.699219 C 180.136719 780.226562 179.226562 780.6875 178.28125 781.082031 C 177.335938 781.480469 176.371094 781.800781 175.378906 782.054688 C 174.386719 782.308594 173.382812 782.488281 172.363281 782.59375 C 171.34375 782.699219 170.324219 782.730469 169.300781 782.683594 C 168.28125 782.640625 167.265625 782.523438 166.261719 782.328125 C 165.253906 782.136719 164.269531 781.871094 163.304688 781.53125 C 162.335938 781.195312 161.398438 780.789062 160.492188 780.3125 C 159.585938 779.839844 158.71875 779.300781 157.890625 778.699219 C 157.066406 778.097656 156.285156 777.4375 155.554688 776.71875 C 154.824219 776.003906 154.148438 775.238281 153.53125 774.421875 C 152.910156 773.605469 152.355469 772.75 151.863281 771.855469 C 151.371094 770.957031 150.945312 770.027344 150.585938 769.070312 C 150.230469 768.109375 149.945312 767.128906 149.734375 766.128906 C 149.519531 765.128906 149.378906 764.117188 149.316406 763.09375 C 149.25 762.074219 149.261719 761.050781 149.347656 760.03125 C 149.429688 759.011719 149.589844 758.003906 149.824219 757.007812 L 208.730469 504.425781 L 12.417969 334.492188 C 11.644531 333.820312 10.925781 333.097656 10.257812 332.324219 C 9.589844 331.546875 8.984375 330.726562 8.4375 329.863281 C 7.890625 328.996094 7.410156 328.097656 6.992188 327.160156 C 6.578125 326.226562 6.234375 325.265625 5.960938 324.277344 C 5.6875 323.292969 5.484375 322.292969 5.359375 321.277344 C 5.230469 320.261719 5.179688 319.242188 5.199219 318.21875 C 5.222656 317.195312 5.320312 316.179688 5.492188 315.171875 C 5.664062 314.164062 5.90625 313.171875 6.222656 312.199219 C 6.539062 311.226562 6.925781 310.28125 7.378906 309.363281 C 7.835938 308.445312 8.355469 307.570312 8.9375 306.726562 C 9.523438 305.886719 10.164062 305.09375 10.867188 304.347656 C 11.566406 303.601562 12.316406 302.910156 13.117188 302.277344 C 13.921875 301.640625 14.765625 301.066406 15.648438 300.554688 C 16.535156 300.039062 17.453125 299.597656 18.40625 299.21875 C 19.355469 298.839844 20.332031 298.535156 21.328125 298.300781 C 22.320312 298.066406 23.328125 297.902344 24.351562 297.816406 L 282.664062 275.878906 L 383.648438 37.703125 C 384.109375 36.832031 384.632812 36 385.207031 35.199219 C 385.785156 34.398438 386.414062 33.644531 387.09375 32.929688 C 387.769531 32.214844 388.496094 31.550781 389.265625 30.933594 C 390.035156 30.320312 390.839844 29.757812 391.6875 29.25 C 392.53125 28.742188 393.40625 28.296875 394.3125 27.90625 C 395.21875 27.519531 396.144531 27.195312 397.09375 26.929688 C 398.042969 26.667969 399.007812 26.46875 399.984375 26.335938 C 400.960938 26.203125 401.941406 26.136719 402.925781 26.136719 C 403.910156 26.136719 404.890625 26.203125 405.867188 26.335938 C 406.84375 26.46875 407.808594 26.667969 408.757812 26.929688 C 409.707031 27.195312 410.636719 27.519531 411.539062 27.90625 C 412.445312 28.296875 413.320312 28.742188 414.167969 29.25 C 415.011719 29.757812 415.820312 30.320312 416.589844 30.933594 C 417.355469 31.550781 418.082031 32.214844 418.761719 32.929688 C 419.441406 33.644531 420.066406 34.398438 420.644531 35.199219 C 421.222656 36 421.742188 36.832031 422.207031 37.703125 L 523.144531 275.878906 L 781.503906 297.816406 C 782.523438 297.90625 783.527344 298.070312 784.523438 298.304688 C 785.519531 298.542969 786.492188 298.847656 787.441406 299.226562 C 788.390625 299.605469 789.308594 300.050781 790.191406 300.566406 C 791.078125 301.078125 791.917969 301.652344 792.71875 302.289062 C 793.519531 302.925781 794.269531 303.621094 794.96875 304.367188 C 795.667969 305.113281 796.308594 305.90625 796.890625 306.746094 C 797.472656 307.585938 797.992188 308.464844 798.445312 309.382812 C 798.898438 310.296875 799.28125 311.242188 799.597656 312.214844 C 799.914062 313.1875 800.15625 314.179688 800.328125 315.1875 C 800.496094 316.195312 800.59375 317.210938 800.613281 318.234375 C 800.636719 319.253906 800.582031 320.273438 800.453125 321.289062 C 800.328125 322.304688 800.125 323.304688 799.851562 324.289062 C 799.578125 325.273438 799.230469 326.234375 798.816406 327.167969 C 798.402344 328.101562 797.921875 329 797.375 329.867188 C 796.828125 330.730469 796.21875 331.550781 795.554688 332.324219 C 794.886719 333.101562 794.164062 333.824219 793.394531 334.492188 L 597.25 504.425781 L 656.15625 757.007812 C 656.335938 757.773438 656.46875 758.546875 656.5625 759.328125 C 656.652344 760.109375 656.703125 760.890625 656.707031 761.679688 C 656.710938 762.464844 656.667969 763.25 656.585938 764.03125 C 656.5 764.8125 656.371094 765.585938 656.199219 766.355469 C 656.027344 767.121094 655.8125 767.875 655.558594 768.621094 C 655.300781 769.363281 655.003906 770.089844 654.664062 770.800781 C 654.324219 771.507812 653.949219 772.195312 653.53125 772.863281 C 653.113281 773.53125 652.664062 774.171875 652.171875 774.789062 C 651.683594 775.40625 651.164062 775.992188 650.609375 776.546875 C 650.054688 777.105469 649.46875 777.628906 648.855469 778.121094 C 648.242188 778.613281 647.601562 779.070312 646.9375 779.488281 C 646.273438 779.90625 645.585938 780.289062 644.878906 780.628906 C 644.167969 780.972656 643.445312 781.273438 642.703125 781.535156 C 641.960938 781.792969 641.207031 782.011719 640.441406 782.1875 C 639.671875 782.363281 638.898438 782.492188 638.117188 782.582031 C 637.335938 782.667969 636.550781 782.714844 635.765625 782.714844 Z M 402.90625 600.300781 C 406.789062 600.316406 410.390625 601.335938 413.707031 603.359375 L 604.113281 718.238281 L 553.625 501.621094 C 553.410156 500.699219 553.257812 499.765625 553.171875 498.820312 C 553.085938 497.878906 553.0625 496.929688 553.105469 495.984375 C 553.144531 495.035156 553.25 494.097656 553.421875 493.164062 C 553.589844 492.230469 553.820312 491.3125 554.113281 490.414062 C 554.40625 489.511719 554.761719 488.632812 555.175781 487.78125 C 555.585938 486.925781 556.054688 486.105469 556.582031 485.316406 C 557.105469 484.527344 557.679688 483.773438 558.308594 483.0625 C 558.933594 482.351562 559.605469 481.6875 560.324219 481.066406 L 728.542969 335.328125 L 507.027344 316.53125 C 506.085938 316.453125 505.15625 316.3125 504.230469 316.109375 C 503.308594 315.90625 502.40625 315.640625 501.519531 315.316406 C 500.632812 314.992188 499.773438 314.605469 498.9375 314.164062 C 498.105469 313.722656 497.304688 313.226562 496.539062 312.675781 C 495.769531 312.125 495.042969 311.523438 494.359375 310.875 C 493.671875 310.226562 493.03125 309.535156 492.441406 308.800781 C 491.847656 308.066406 491.308594 307.292969 490.820312 306.484375 C 490.332031 305.675781 489.902344 304.839844 489.527344 303.972656 L 402.90625 99.496094 L 316.324219 303.847656 C 315.953125 304.710938 315.519531 305.550781 315.03125 306.359375 C 314.542969 307.167969 314.003906 307.9375 313.410156 308.675781 C 312.820312 309.410156 312.179688 310.101562 311.496094 310.75 C 310.808594 311.398438 310.082031 312 309.316406 312.550781 C 308.546875 313.101562 307.746094 313.597656 306.914062 314.039062 C 306.078125 314.480469 305.21875 314.863281 304.332031 315.191406 C 303.445312 315.515625 302.542969 315.78125 301.621094 315.984375 C 300.699219 316.1875 299.765625 316.328125 298.824219 316.40625 L 77.3125 335.203125 L 245.53125 480.941406 C 246.246094 481.5625 246.917969 482.226562 247.546875 482.9375 C 248.171875 483.648438 248.746094 484.402344 249.273438 485.191406 C 249.796875 485.980469 250.265625 486.800781 250.679688 487.65625 C 251.089844 488.507812 251.445312 489.386719 251.738281 490.289062 C 252.03125 491.1875 252.261719 492.105469 252.433594 493.039062 C 252.601562 493.972656 252.707031 494.910156 252.75 495.859375 C 252.789062 496.804688 252.765625 497.75 252.679688 498.695312 C 252.59375 499.640625 252.441406 500.574219 252.226562 501.496094 L 201.695312 718.238281 L 392.105469 603.359375 C 395.421875 601.335938 399.019531 600.316406 402.90625 600.300781 Z M 402.90625 600.300781 " fill-opacity="1" fill-rule="nonzero"/></g></svg>
