<svg xmlns="http://www.w3.org/2000/svg" xmlns:xlink="http://www.w3.org/1999/xlink" width="1080" zoomAndPan="magnify" viewBox="0 0 810 809.999993" height="1080" preserveAspectRatio="xMidYMid meet" version="1.0"><defs><clipPath id="df7717dd4f"><path d="M 17.742188 17.742188 L 795.492188 17.742188 L 795.492188 795.492188 L 17.742188 795.492188 Z M 17.742188 17.742188 " clip-rule="nonzero"/></clipPath></defs><g clip-path="url(#df7717dd4f)"><path fill="#800f2f" d="M 795.339844 406.542969 C 795.339844 621.3125 621.3125 795.339844 406.542969 795.339844 C 191.769531 795.339844 17.742188 621.3125 17.742188 406.542969 C 17.742188 191.769531 191.769531 17.742188 406.542969 17.742188 C 621.3125 17.742188 795.339844 191.769531 795.339844 406.542969 Z M 795.339844 406.542969 " fill-opacity="1" fill-rule="nonzero"/></g><path fill="#ffffff" d="M 642.152344 317.429688 L 398.609375 561.128906 L 371.394531 588.34375 C 354.441406 605.296875 326.761719 605.296875 309.808594 588.34375 L 170.929688 449.464844 C 154.910156 433.445312 154.910156 407.476562 170.929688 391.457031 C 186.949219 375.4375 212.917969 375.4375 228.9375 391.457031 L 340.445312 502.964844 L 583.988281 259.421875 C 600.007812 243.402344 625.980469 243.402344 642 259.421875 C 658.171875 275.4375 658.171875 301.410156 642.152344 317.429688 Z M 642.152344 317.429688 " fill-opacity="1" fill-rule="nonzero"/></svg>