<svg xmlns="http://www.w3.org/2000/svg" xmlns:xlink="http://www.w3.org/1999/xlink" width="1080" zoomAndPan="magnify" viewBox="0 0 810 809.999993" height="1080" preserveAspectRatio="xMidYMid meet" version="1.0"><defs><clipPath id="f7dbc683ee"><path d="M 100.078125 11.554688 L 709.828125 11.554688 L 709.828125 798.304688 L 100.078125 798.304688 Z M 100.078125 11.554688 " clip-rule="nonzero"/></clipPath></defs><g clip-path="url(#f7dbc683ee)"><path fill="#800f2f" d="M 644.542969 315.644531 L 644.542969 251.085938 C 644.542969 119.035156 537.066406 11.554688 405.015625 11.554688 C 272.964844 11.554688 165.441406 119.007812 165.441406 251.085938 L 165.441406 315.644531 C 129.28125 316.621094 100.222656 346.085938 100.222656 382.484375 L 100.222656 731.414062 C 100.222656 732.507812 100.25 733.605469 100.304688 734.699219 C 100.359375 735.796875 100.4375 736.890625 100.546875 737.980469 C 100.652344 739.074219 100.789062 740.160156 100.949219 741.246094 C 101.109375 742.332031 101.296875 743.414062 101.511719 744.488281 C 101.722656 745.5625 101.964844 746.632812 102.230469 747.699219 C 102.496094 748.761719 102.789062 749.820312 103.109375 750.867188 C 103.425781 751.917969 103.769531 752.960938 104.140625 753.992188 C 104.507812 755.027344 104.902344 756.050781 105.324219 757.0625 C 105.742188 758.074219 106.1875 759.078125 106.65625 760.070312 C 107.125 761.0625 107.617188 762.042969 108.136719 763.007812 C 108.652344 763.976562 109.191406 764.929688 109.757812 765.871094 C 110.320312 766.8125 110.90625 767.738281 111.515625 768.652344 C 112.125 769.5625 112.757812 770.460938 113.410156 771.339844 C 114.0625 772.222656 114.738281 773.085938 115.433594 773.933594 C 116.128906 774.78125 116.847656 775.613281 117.582031 776.425781 C 118.320312 777.238281 119.074219 778.03125 119.851562 778.808594 C 120.625 779.585938 121.421875 780.339844 122.234375 781.078125 C 123.046875 781.8125 123.875 782.53125 124.726562 783.226562 C 125.574219 783.921875 126.4375 784.597656 127.316406 785.25 C 128.199219 785.902344 129.09375 786.535156 130.007812 787.144531 C 130.917969 787.753906 131.847656 788.339844 132.785156 788.90625 C 133.726562 789.46875 134.683594 790.007812 135.648438 790.527344 C 136.617188 791.042969 137.597656 791.539062 138.585938 792.007812 C 139.578125 792.476562 140.582031 792.917969 141.59375 793.339844 C 142.609375 793.757812 143.632812 794.15625 144.664062 794.523438 C 145.695312 794.894531 146.738281 795.238281 147.789062 795.554688 C 148.835938 795.875 149.894531 796.167969 150.957031 796.433594 C 152.023438 796.699219 153.09375 796.941406 154.167969 797.15625 C 155.246094 797.367188 156.324219 797.554688 157.410156 797.71875 C 158.496094 797.878906 159.582031 798.011719 160.675781 798.121094 C 161.765625 798.226562 162.859375 798.308594 163.957031 798.363281 C 165.050781 798.417969 166.148438 798.445312 167.246094 798.445312 L 642.75 798.445312 C 643.847656 798.445312 644.945312 798.417969 646.039062 798.363281 C 647.136719 798.308594 648.230469 798.230469 649.320312 798.121094 C 650.414062 798.015625 651.5 797.878906 652.585938 797.71875 C 653.671875 797.558594 654.75 797.371094 655.828125 797.15625 C 656.902344 796.941406 657.972656 796.703125 659.039062 796.433594 C 660.101562 796.167969 661.15625 795.875 662.207031 795.558594 C 663.257812 795.238281 664.300781 794.894531 665.332031 794.527344 C 666.363281 794.15625 667.386719 793.761719 668.402344 793.34375 C 669.414062 792.921875 670.417969 792.476562 671.410156 792.007812 C 672.402344 791.539062 673.378906 791.046875 674.347656 790.53125 C 675.316406 790.011719 676.269531 789.472656 677.210938 788.90625 C 678.152344 788.34375 679.078125 787.757812 679.988281 787.148438 C 680.902344 786.539062 681.796875 785.90625 682.679688 785.253906 C 683.5625 784.601562 684.425781 783.925781 685.273438 783.230469 C 686.121094 782.535156 686.953125 781.816406 687.765625 781.082031 C 688.578125 780.34375 689.371094 779.589844 690.148438 778.8125 C 690.921875 778.035156 691.679688 777.242188 692.414062 776.429688 C 693.152344 775.617188 693.867188 774.785156 694.566406 773.9375 C 695.261719 773.089844 695.9375 772.226562 696.589844 771.34375 C 697.242188 770.464844 697.875 769.566406 698.484375 768.65625 C 699.09375 767.742188 699.679688 766.816406 700.242188 765.875 C 700.808594 764.9375 701.347656 763.980469 701.867188 763.015625 C 702.382812 762.046875 702.875 761.066406 703.34375 760.074219 C 703.8125 759.082031 704.257812 758.082031 704.679688 757.066406 C 705.097656 756.054688 705.492188 755.03125 705.863281 754 C 706.230469 752.964844 706.578125 751.925781 706.894531 750.875 C 707.214844 749.824219 707.507812 748.769531 707.773438 747.703125 C 708.039062 746.640625 708.28125 745.570312 708.492188 744.492188 C 708.707031 743.417969 708.894531 742.335938 709.054688 741.253906 C 709.21875 740.167969 709.351562 739.078125 709.460938 737.988281 C 709.566406 736.894531 709.648438 735.800781 709.703125 734.707031 C 709.753906 733.609375 709.78125 732.515625 709.78125 731.417969 L 709.78125 382.484375 C 709.78125 346.078125 680.710938 316.613281 644.542969 315.644531 Z M 459.828125 508.730469 C 459.53125 510.808594 458.367188 515.546875 458.257812 515.910156 C 454.167969 530.089844 444.386719 541.730469 431.6875 548.816406 L 453.203125 640.546875 C 453.359375 641.019531 453.488281 641.496094 453.585938 641.984375 C 453.6875 642.46875 453.757812 642.960938 453.796875 643.457031 C 453.839844 643.949219 453.855469 644.445312 453.839844 644.941406 C 453.824219 645.4375 453.777344 645.933594 453.703125 646.421875 C 453.632812 646.914062 453.53125 647.398438 453.398438 647.878906 C 453.269531 648.355469 453.113281 648.828125 452.925781 649.289062 C 452.742188 649.75 452.53125 650.199219 452.292969 650.632812 C 452.054688 651.070312 451.792969 651.492188 451.507812 651.894531 C 451.222656 652.300781 450.914062 652.691406 450.582031 653.058594 C 450.25 653.429688 449.898438 653.777344 449.523438 654.105469 C 449.152344 654.433594 448.761719 654.738281 448.355469 655.023438 C 447.945312 655.304688 447.523438 655.5625 447.085938 655.796875 C 446.644531 656.03125 446.195312 656.238281 445.734375 656.417969 C 445.269531 656.597656 444.800781 656.753906 444.320312 656.878906 C 443.839844 657.003906 443.351562 657.101562 442.859375 657.171875 C 442.371094 657.238281 441.875 657.28125 441.378906 657.289062 L 370.082031 657.289062 C 369.585938 657.28125 369.09375 657.238281 368.601562 657.171875 C 368.109375 657.101562 367.621094 657.003906 367.140625 656.878906 C 366.660156 656.753906 366.191406 656.597656 365.726562 656.417969 C 365.265625 656.238281 364.816406 656.03125 364.378906 655.796875 C 363.9375 655.5625 363.515625 655.304688 363.109375 655.023438 C 362.699219 654.738281 362.308594 654.433594 361.9375 654.105469 C 361.566406 653.777344 361.210938 653.429688 360.882812 653.058594 C 360.550781 652.691406 360.242188 652.300781 359.953125 651.894531 C 359.667969 651.492188 359.40625 651.070312 359.167969 650.632812 C 358.929688 650.199219 358.71875 649.75 358.535156 649.289062 C 358.351562 648.828125 358.195312 648.355469 358.0625 647.878906 C 357.933594 647.398438 357.832031 646.914062 357.757812 646.421875 C 357.6875 645.929688 357.640625 645.4375 357.625 644.941406 C 357.609375 644.445312 357.625 643.949219 357.667969 643.453125 C 357.710938 642.960938 357.78125 642.46875 357.878906 641.984375 C 357.980469 641.496094 358.105469 641.019531 358.261719 640.546875 L 378.320312 548.816406 C 365.613281 541.730469 355.832031 530.089844 351.746094 515.910156 C 351.640625 515.546875 350.46875 510.808594 350.171875 508.730469 C 349.796875 506.167969 349.605469 503.59375 349.605469 501.003906 C 349.601562 499.191406 349.691406 497.378906 349.867188 495.574219 C 350.046875 493.769531 350.3125 491.976562 350.664062 490.195312 C 351.019531 488.414062 351.457031 486.65625 351.984375 484.921875 C 352.511719 483.183594 353.121094 481.476562 353.816406 479.800781 C 354.507812 478.125 355.28125 476.484375 356.136719 474.882812 C 356.992188 473.28125 357.925781 471.726562 358.933594 470.21875 C 359.941406 468.710938 361.019531 467.253906 362.171875 465.851562 C 363.320312 464.449219 364.539062 463.105469 365.820312 461.820312 C 367.105469 460.539062 368.449219 459.320312 369.851562 458.167969 C 371.253906 457.015625 372.707031 455.9375 374.21875 454.929688 C 375.726562 453.921875 377.28125 452.988281 378.878906 452.132812 C 380.480469 451.277344 382.121094 450.5 383.796875 449.808594 C 385.472656 449.113281 387.179688 448.5 388.914062 447.972656 C 390.652344 447.449219 392.410156 447.007812 394.191406 446.652344 C 395.96875 446.296875 397.761719 446.03125 399.570312 445.855469 C 401.375 445.675781 403.183594 445.589844 405 445.589844 C 406.816406 445.589844 408.625 445.675781 410.429688 445.855469 C 412.238281 446.03125 414.03125 446.296875 415.808594 446.652344 C 417.589844 447.007812 419.347656 447.449219 421.085938 447.972656 C 422.820312 448.5 424.527344 449.113281 426.203125 449.808594 C 427.882812 450.5 429.519531 451.277344 431.121094 452.132812 C 432.71875 452.988281 434.273438 453.921875 435.785156 454.929688 C 437.292969 455.9375 438.746094 457.015625 440.152344 458.167969 C 441.554688 459.320312 442.894531 460.539062 444.179688 461.820312 C 445.460938 463.105469 446.679688 464.449219 447.828125 465.851562 C 448.980469 467.253906 450.058594 468.710938 451.066406 470.21875 C 452.074219 471.726562 453.007812 473.28125 453.863281 474.882812 C 454.71875 476.484375 455.492188 478.125 456.1875 479.800781 C 456.878906 481.476562 457.488281 483.183594 458.015625 484.921875 C 458.542969 486.65625 458.980469 488.414062 459.335938 490.195312 C 459.6875 491.976562 459.953125 493.769531 460.132812 495.574219 C 460.308594 497.378906 460.398438 499.191406 460.394531 501.003906 C 460.394531 503.59375 460.203125 506.167969 459.828125 508.730469 Z M 562.75 315.457031 L 247.238281 315.457031 L 247.238281 251.085938 C 247.238281 164.078125 317.988281 93.304688 405.015625 93.304688 C 492.046875 93.304688 562.75 164.078125 562.75 251.085938 Z M 562.75 315.457031 " fill-opacity="1" fill-rule="nonzero"/></g></svg>